<svg width="19" height="19" viewBox="0 0 19 19" fill="none" xmlns="http://www.w3.org/2000/svg">
<g clip-path="url(#clip0_1_16)">
<mask id="path-1-inside-1_1_16" fill="white">
<path d="M0.25296 4.57105C0.590181 4.23382 1.13703 4.23377 1.47431 4.5711L9.4998 12.5968L17.5257 4.57105C17.8629 4.23382 18.4098 4.23377 18.747 4.5711C19.0843 4.90838 19.0843 5.45518 18.747 5.79246L10.1104 14.4288C9.94849 14.5908 9.72884 14.6818 9.4998 14.6818C9.27076 14.6818 9.05105 14.5907 8.88915 14.4288L0.253018 5.7924C-0.0843188 5.45518 -0.0843191 4.90832 0.25296 4.57105Z"/>
</mask>
<path d="M0.25296 4.57105C0.590181 4.23382 1.13703 4.23377 1.47431 4.5711L9.4998 12.5968L17.5257 4.57105C17.8629 4.23382 18.4098 4.23377 18.747 4.5711C19.0843 4.90838 19.0843 5.45518 18.747 5.79246L10.1104 14.4288C9.94849 14.5908 9.72884 14.6818 9.4998 14.6818C9.27076 14.6818 9.05105 14.5907 8.88915 14.4288L0.253018 5.7924C-0.0843188 5.45518 -0.0843191 4.90832 0.25296 4.57105Z" fill="white"/>
<path d="M1.47431 4.5711L-0.64703 6.6924L-0.647188 6.69224L1.47431 4.5711ZM9.4998 12.5968L11.6211 14.7181L9.49975 16.8394L7.37846 14.7181L9.4998 12.5968ZM17.5257 4.57105L19.647 6.69237L19.647 6.69239L17.5257 4.57105ZM18.747 4.5711L16.6257 6.69242L16.6255 6.69224L18.747 4.5711ZM18.747 5.79246L20.8684 7.91378L20.8683 7.91381L18.747 5.79246ZM10.1104 14.4288L7.98913 12.3075L7.98916 12.3075L10.1104 14.4288ZM8.88915 14.4288L11.0105 12.3075L11.0108 12.3078L8.88915 14.4288ZM0.253018 5.7924L2.37398 3.67072L2.37437 3.67111L0.253018 5.7924ZM-1.86836 2.44973C-0.359667 0.941031 2.08682 0.940713 3.59581 2.44996L-0.647188 6.69224C0.187247 7.52682 1.54003 7.52662 2.37428 6.69237L-1.86836 2.44973ZM3.59566 2.44981L11.6211 10.4755L7.37846 14.7181L-0.64703 6.6924L3.59566 2.44981ZM7.3785 10.4754L15.4044 2.4497L19.647 6.69239L11.6211 14.7181L7.3785 10.4754ZM15.4044 2.44973C16.9131 0.941031 19.3595 0.940713 20.8685 2.44996L16.6255 6.69224C17.46 7.52682 18.8128 7.52662 19.647 6.69237L15.4044 2.44973ZM20.8684 2.44978C22.3772 3.95863 22.3772 6.40493 20.8684 7.91378L16.6257 3.67114C15.7914 4.50543 15.7914 5.85813 16.6257 6.69242L20.8684 2.44978ZM20.8683 7.91381L12.2317 16.5502L7.98916 12.3075L16.6257 3.67111L20.8683 7.91381ZM12.2318 16.5501C11.5071 17.2748 10.5244 17.6818 9.4998 17.6818V11.6818C8.93328 11.6818 8.38984 11.9068 7.98913 12.3075L12.2318 16.5501ZM9.4998 17.6818C8.475 17.6818 7.49205 17.2746 6.76745 16.5497L11.0108 12.3078C10.6101 11.9069 10.0665 11.6818 9.4998 11.6818V17.6818ZM6.7678 16.5501L-1.86833 7.91369L2.37437 3.67111L11.0105 12.3075L6.7678 16.5501ZM-1.86794 7.91408C-3.3774 6.40514 -3.37714 3.95851 -1.86836 2.44973L2.37428 6.69237C3.20851 5.85814 3.20876 4.50522 2.37398 3.67072L-1.86794 7.91408Z" fill="white" mask="url(#path-1-inside-1_1_16)"/>
</g>
<defs>
<clipPath id="clip0_1_16">
<rect width="19" height="19" fill="white" transform="matrix(-1 0 0 1 19 0)"/>
</clipPath>
</defs>
</svg>
